<svg xmlns="http://www.w3.org/2000/svg" width="92" height="68" viewBox="0 0 92 68">
    <g fill="none" fill-rule="evenodd">
        <g>
            <path fill="#D6E4E7" d="M13.622 56.37h7.065a2.522 2.522 0 1 0 0-5.044H3.026a3.026 3.026 0 1 1 0-6.052h16.056a2.017 2.017 0 0 0 0-4.035h-5.506a3.026 3.026 0 0 1 0-6.052h29.816a3.026 3.026 0 0 1 3.026 3.026h6.549a3.026 3.026 0 0 1 3.026-3.026h29.816a3.026 3.026 0 1 1 0 6.052H71.094a2.522 2.522 0 1 0 0 5.044H87.965a4.035 4.035 0 1 1 0 8.07H72.7a2.017 2.017 0 1 0 0 4.034h6.561a3.026 3.026 0 1 1 0 6.052H49.444a3.026 3.026 0 0 1-3.026-3.026h-4.347a4.036 4.036 0 0 1-3.907 3.026h-27.8a4.035 4.035 0 0 1 0-8.07h3.258z"/>
            <ellipse cx="75.9" cy="31.16" fill="#7EABB7" rx="1.882" ry="1.908"/>
            <ellipse cx="11.918" cy="45.15" fill="#7EABB7" rx="1.882" ry="1.908"/>
            <ellipse cx="15.995" cy="21.303" fill="#7EABB7" rx="1" ry="1"/>
            <ellipse cx="55.095" cy="11.128" fill="#7EABB7" rx="1" ry="1"/>
            <ellipse cx="33.559" cy="8.585" fill="#C8EAE6" rx="1" ry="1"/>
            <ellipse cx="19.759" cy="27.662" fill="#C8EAE6" rx="1" ry="1"/>
            <ellipse cx="83.278" cy="21.833" fill="#7EABB7" rx="1" ry="1"/>
            <path fill="#AFC9CE" d="M71.09 14.838v-1.12a1 1 0 0 1 1-1h.092a1 1 0 0 1 1 1v1.12h1.09a1 1 0 0 1 1 1v.12a1 1 0 0 1-1 1h-1.09v1.12a1 1 0 0 1-1 1h-.091a1 1 0 0 1-1-1v-1.12H70a1 1 0 0 1-1-1v-.12a1 1 0 0 1 1-1h1.09zM18.4 11.022v-1.12a1 1 0 0 1 1-1h.09a1 1 0 0 1 1 1v1.12h1.092a1 1 0 0 1 1 1v.12a1 1 0 0 1-1 1H20.49v1.12a1 1 0 0 1-1 1H19.4a1 1 0 0 1-1-1v-1.12h-1.09a1 1 0 0 1-1-1v-.12a1 1 0 0 1 1-1h1.09zM44.745 2.12V1a1 1 0 0 1 1-1h.091a1 1 0 0 1 1 1v1.12h1.091a1 1 0 0 1 1 1v.12a1 1 0 0 1-1 1h-1.09v1.12a1 1 0 0 1-1 1h-.092a1 1 0 0 1-1-1V4.24h-1.09a1 1 0 0 1-1-1v-.12a1 1 0 0 1 1-1h1.09z"/>
        </g>
        <g stroke="#323232" transform="translate(25.09 11.87)">
            <rect width="40.318" height="48.101" x=".75" y="7.109" fill="#00C7AE" stroke-width="1.5" rx="4"/>
            <rect width="31.955" height="39.622" x="4.932" y="11.349" fill="#FFF" stroke-width="1.5" rx="2"/>
            <g transform="translate(10.873)">
                <path fill="#FFF" stroke-width="1.5" d="M5.768 5.018v.82H2c-.69 0-1.25.559-1.25 1.25v4.478c0 .69.56 1.25 1.25 1.25h16.073c.69 0 1.25-.56 1.25-1.25V7.087c0-.69-.56-1.25-1.25-1.25h-3.768v-.819a4.268 4.268 0 0 0-8.537 0z"/>
                <rect width="1" height="1" x="9.782" y="4.392" fill="#323232" stroke-width="2" rx=".5"/>
            </g>
        </g>
        <g fill="#FFF" stroke="#323232" stroke-width="1.5" transform="rotate(45 -3.479 97.653)">
            <path stroke-linecap="round" stroke-linejoin="round" d="M3.924 35.448L.997 29.513h5.855z"/>
            <rect width="6.372" height="29.09" x=".75" y=".75" rx="3.186"/>
            <path d="M.75 7.4v21.19c0 .69.56 1.25 1.25 1.25h3.872c.69 0 1.25-.56 1.25-1.25V7.4H.75z"/>
        </g>
        <path fill="#00C7AE" d="M52.214 51.767l10.204-10.345a.652.652 0 0 1 .928 0 .67.67 0 0 1 0 .94L53.142 52.707a.652.652 0 0 1-.928 0 .67.67 0 0 1 0-.94z"/>
        <g stroke="#323232" stroke-width="1.5" transform="translate(35 32)">
            <rect width="21.5" height="6.663" x=".75" y=".75" fill="#FFF" rx="2"/>
            <path stroke-linecap="round" d="M1 13.918h12M1 18h8M1 22h5"/>
        </g>
    </g>
</svg>
