<svg xmlns="http://www.w3.org/2000/svg" width="92" height="68" viewBox="0 0 92 68">
    <g fill="none" fill-rule="evenodd">
        <path fill="#D6E4E7" d="M13.593 55.553h7.13a2.485 2.485 0 0 0 0-4.97H2.983a2.982 2.982 0 1 1 0-5.965h16.129a1.988 1.988 0 0 0 0-3.976h-5.58a2.982 2.982 0 1 1 0-5.965h29.905a2.982 2.982 0 0 1 2.982 2.982h6.549a2.982 2.982 0 0 1 2.982-2.982h29.904a2.982 2.982 0 0 1 0 5.965H71.057a2.485 2.485 0 0 0 0 4.97h16.967a3.976 3.976 0 1 1 0 7.952H72.67a1.988 1.988 0 1 0 0 3.977h6.635a2.982 2.982 0 0 1 0 5.964H49.4a2.982 2.982 0 0 1-2.982-2.982h-4.345a3.978 3.978 0 0 1-3.85 2.982H10.305a3.976 3.976 0 1 1 0-7.952h3.287z"/>
        <ellipse cx="75.9" cy="30.708" fill="#7EABB7" rx="1.882" ry="1.88"/>
        <ellipse cx="11.918" cy="44.495" fill="#7EABB7" rx="1.882" ry="1.88"/>
        <ellipse cx="15.995" cy="20.994" fill="#7EABB7" rx="1" ry="1"/>
        <ellipse cx="55.095" cy="10.967" fill="#7EABB7" rx="1" ry="1"/>
        <ellipse cx="33.559" cy="8.46" fill="#C8EAE6" rx="1" ry="1"/>
        <ellipse cx="19.759" cy="27.261" fill="#C8EAE6" rx="1" ry="1"/>
        <ellipse cx="83.278" cy="21.517" fill="#7EABB7" rx="1" ry="1"/>
        <path fill="#AFC9CE" d="M71.09 14.623v-1.09a1 1 0 0 1 1-1h.092a1 1 0 0 1 1 1v1.09h1.09a1 1 0 0 1 1 1v.089a1 1 0 0 1-1 1h-1.09V17.8a1 1 0 0 1-1 1h-.091a1 1 0 0 1-1-1v-1.09H70a1 1 0 0 1-1-1v-.088a1 1 0 0 1 1-1h1.09zM18.4 10.863v-1.09a1 1 0 0 1 1-1h.09a1 1 0 0 1 1 1v1.09h1.092a1 1 0 0 1 1 1v.089a1 1 0 0 1-1 1H20.49v1.089a1 1 0 0 1-1 1H19.4a1 1 0 0 1-1-1v-1.09h-1.09a1 1 0 0 1-1-1v-.088a1 1 0 0 1 1-1h1.09zM44.745 2.089V1a1 1 0 0 1 1-1h.091a1 1 0 0 1 1 1v1.089h1.091a1 1 0 0 1 1 1v.089a1 1 0 0 1-1 1h-1.09v1.089a1 1 0 0 1-1 1h-.092a1 1 0 0 1-1-1V4.178h-1.09a1 1 0 0 1-1-1v-.089a1 1 0 0 1 1-1h1.09z"/>
        <g stroke="#323232" stroke-width="1.5" transform="translate(21.745 17.547)">
            <path fill="#FFF" d="M32.618 8.356C32.618 3.74 28.874 0 24.255 0c-4.62 0-8.364 3.741-8.364 8.356"/>
            <path fill="#00C7AE" stroke-linejoin="round" d="M31.782 25.068c0 4.615 3.744 8.356 8.363 8.356 4.62 0 8.364-3.741 8.364-8.356H31.782z"/>
            <rect width="3.518" height="32.759" x="22.495" y="9.106" fill="#FFF" rx="1.759"/>
            <path fill="#FFF" d="M7.44 8.863c0 .69.56 1.25 1.25 1.25h31.128c.69 0 1.25-.56 1.25-1.25V7.849c0-.69-.56-1.25-1.25-1.25H8.691c-.69 0-1.25.56-1.25 1.25v1.014zM19.11 42.602v-.8c0-1.768 1.529-3.2 3.415-3.2h3.168c1.887 0 3.416 1.432 3.416 3.2v.8"/>
            <path fill="#FFF" d="M14.968 49.058h18.573v-3.605a3.25 3.25 0 0 0-3.25-3.25H18.218a3.25 3.25 0 0 0-3.25 3.25v3.605z"/>
            <path stroke-linejoin="round" d="M0 25.068l8.364-15.04 8.363 15.04M31.782 25.068l8.363-15.04 8.364 15.04"/>
            <path fill="#00C7AE" stroke-linejoin="round" d="M0 25.068c0 4.615 3.745 8.356 8.364 8.356 4.619 0 8.363-3.741 8.363-8.356H0z"/>
            <ellipse cx="24.255" cy="8.356" fill="#FFF" rx="4.268" ry="4.264"/>
        </g>
        <ellipse cx="46" cy="25.903" fill="#FFF" stroke="#00C7AE" stroke-width="2" rx="1" ry="1"/>
    </g>
</svg>
