<svg xmlns="http://www.w3.org/2000/svg" width="92" height="68" viewBox="0 0 92 68">
    <g fill="none" fill-rule="evenodd">
        <g>
            <path fill="#D6E4E7" d="M13.593 55.565h7.13a2.486 2.486 0 0 0 0-4.972H2.983a2.983 2.983 0 1 1 0-5.965H19.11a1.989 1.989 0 0 0 0-3.977h-5.579a2.983 2.983 0 1 1 0-5.966h29.903a2.983 2.983 0 0 1 2.983 2.983h6.549a2.983 2.983 0 0 1 2.982-2.983h29.903a2.983 2.983 0 1 1 0 5.966H71.058a2.486 2.486 0 1 0 0 4.971h16.964a3.977 3.977 0 1 1 0 7.954H72.672a1.989 1.989 0 0 0 0 3.977H79.303a2.983 2.983 0 1 1 0 5.966H49.402a2.983 2.983 0 0 1-2.983-2.983h-4.345a3.979 3.979 0 0 1-3.852 2.983H10.307a3.977 3.977 0 0 1 0-7.954h3.286z"/>
            <ellipse cx="75.9" cy="30.715" fill="#7EABB7" rx="1.882" ry="1.881"/>
            <ellipse cx="11.918" cy="44.505" fill="#7EABB7" rx="1.882" ry="1.881"/>
            <ellipse cx="15.995" cy="20.999" fill="#7EABB7" rx="1" ry="1"/>
            <ellipse cx="55.095" cy="10.97" fill="#7EABB7" rx="1" ry="1"/>
            <ellipse cx="33.559" cy="8.462" fill="#C8EAE6" rx="1" ry="1"/>
            <ellipse cx="19.759" cy="27.267" fill="#C8EAE6" rx="1" ry="1"/>
            <ellipse cx="83.278" cy="21.521" fill="#7EABB7" rx="1" ry="1"/>
            <path fill="#AFC9CE" d="M71.09 14.626v-1.09a1 1 0 0 1 1-1h.092a1 1 0 0 1 1 1v1.09h1.09a1 1 0 0 1 1 1v.09a1 1 0 0 1-1 1h-1.09v1.089a1 1 0 0 1-1 1h-.091a1 1 0 0 1-1-1v-1.09H70a1 1 0 0 1-1-1v-.089a1 1 0 0 1 1-1h1.09zM18.4 10.865v-1.09a1 1 0 0 1 1-1h.09a1 1 0 0 1 1 1v1.09h1.092a1 1 0 0 1 1 1v.09a1 1 0 0 1-1 1H20.49v1.089a1 1 0 0 1-1 1H19.4a1 1 0 0 1-1-1v-1.09h-1.09a1 1 0 0 1-1-1v-.089a1 1 0 0 1 1-1h1.09zM44.745 2.09V1a1 1 0 0 1 1-1h.091a1 1 0 0 1 1 1v1.09h1.091a1 1 0 0 1 1 1v.089a1 1 0 0 1-1 1h-1.09v1.09a1 1 0 0 1-1 1h-.092a1 1 0 0 1-1-1v-1.09h-1.09a1 1 0 0 1-1-1v-.09a1 1 0 0 1 1-1h1.09z"/>
        </g>
        <g stroke="#323232" stroke-width="1.5" transform="translate(20.91 33.917)">
            <path fill="#FFF" stroke-linecap="round" stroke-linejoin="round" d="M23.547 25.584l2.478 2.397c.74.716.689 1.928-.116 2.706-.804.778-2.056.828-2.797.112l-2.62-2.536L4.105 16.754C.792 7.404.802 2.725 4.136 2.719c5-.01 16.51 1.04 19.486 1.636 1.985.396 6.144 3.403 12.477 9.02l4.936 4.77c1.354 1.309 1.377 3.41.051 4.691-1.325 1.282-3.496 1.26-4.85-.05l-.565-.547c.864 1.106.801 2.658-.206 3.632-1.104 1.069-2.928 1.038-4.073-.07l-4.036-3.904-.071.069 3.591 3.475a2.438 2.438 0 0 1 .01 3.529c-1.004.972-2.638.967-3.648-.01l-3.59-3.473-.1.097z"/>
            <path fill="#FFF" d="M46.44 5.33h-7.486L29.987.996c-1.483-.4-2.637-.234-3.46.497-.822.731-2.393 2.065-4.713 4-1.906 1.528-2.141 2.849-.704 3.965 1.437 1.116 3.15 1.255 5.139.417 1.612-.88 2.558-1.502 2.837-1.864.279-.363 4.12 2.838 11.525 9.603h5.83V5.33z"/>
            <rect width="3.727" height="15.922" x=".75" y=".75" fill="#00C7AE" rx="1.864"/>
            <g fill="#FFF">
                <path d="M11.157 13.04c-.931-.9-2.409-.9-3.34 0L5.6 15.185l-.052.052a2.2 2.2 0 0 0 .051 3.11c.931.901 2.41.901 3.34 0l2.218-2.145.051-.051a2.2 2.2 0 0 0-.051-3.111zM13.746 17.617a2.404 2.404 0 0 0-3.343 0l-1.848 1.788-.051.052a2.202 2.202 0 0 0 .051 3.113c.932.902 2.41.902 3.343 0l1.848-1.788.051-.051a2.202 2.202 0 0 0-.051-3.114zM16.706 21.844a2.408 2.408 0 0 0-3.349 0l-1.109 1.072-.051.052a2.206 2.206 0 0 0 .051 3.12 2.408 2.408 0 0 0 3.349 0l1.109-1.074.051-.051a2.206 2.206 0 0 0-.051-3.12zM20.035 25.718a2.412 2.412 0 0 0-3.354 0l-.37.358c-.026.025-.026.025-.051.052a2.21 2.21 0 0 0 .051 3.124c.935.905 2.42.905 3.355 0l.37-.357.05-.052a2.21 2.21 0 0 0-.05-3.125z"/>
            </g>
            <rect width="3.727" height="15.922" x="45.705" y="3.239" fill="#00C7AE" rx="1.864"/>
        </g>
        <g transform="translate(37.144 15.716)">
            <ellipse cx="8.499" cy="8.259" fill="#FFCE21" stroke="#323232" stroke-width="1.5" rx="7.515" ry="7.509"/>
            <path fill="#323232" fill-rule="nonzero" d="M9.234 7.878a2.6 2.6 0 0 1 0 5.05v.596a.643.643 0 1 1-1.286 0v-.61a2.609 2.609 0 0 1-1.935-2.518c0-.35.286-.649.65-.649.363 0 .649.299.649.65 0 .48.26.895.636 1.128V9.008a2.593 2.593 0 0 1-1.935-2.505c0-1.195.831-2.22 1.935-2.505v-.52a.64.64 0 0 1 .65-.636c.35 0 .636.286.636.636v.507a2.6 2.6 0 0 1 1.974 2.518.643.643 0 0 1-.65.649.651.651 0 0 1-.649-.65 1.3 1.3 0 0 0-.675-1.142v2.518zM7.312 6.503c0 .467.26.882.636 1.116V5.386a1.325 1.325 0 0 0-.636 1.117zm1.922 5.048c.403-.233.675-.661.675-1.155a1.3 1.3 0 0 0-.675-1.142v2.297z"/>
        </g>
    </g>
</svg>
