<svg xmlns="http://www.w3.org/2000/svg" width="92" height="68" viewBox="0 0 92 68">
    <g fill="none" fill-rule="evenodd">
        <path fill="#D6E4E7" d="M13.618 56.252h7.075a2.516 2.516 0 0 0 0-5.033H3.02a3.02 3.02 0 0 1 0-6.04h16.066a2.013 2.013 0 0 0 0-4.026h-5.517a3.02 3.02 0 0 1 0-6.04H43.4a3.02 3.02 0 0 1 3.02 3.02h6.548a3.02 3.02 0 0 1 3.02-3.02h29.828a3.02 3.02 0 0 1 0 6.04H71.09a2.516 2.516 0 0 0 0 5.033H87.974a4.026 4.026 0 0 1 0 8.053H72.695a2.013 2.013 0 0 0 0 4.027H79.267a3.02 3.02 0 1 1 0 6.039H49.438a3.02 3.02 0 0 1-3.02-3.02h-4.347a4.028 4.028 0 0 1-3.899 3.02H10.356a4.026 4.026 0 0 1 0-8.053h3.262z"/>
        <ellipse cx="75.9" cy="31.095" fill="#7EABB7" rx="1.882" ry="1.904"/>
        <ellipse cx="11.918" cy="45.056" fill="#7EABB7" rx="1.882" ry="1.904"/>
        <ellipse cx="15.995" cy="21.259" fill="#7EABB7" rx="1" ry="1"/>
        <ellipse cx="55.095" cy="11.105" fill="#7EABB7" rx="1" ry="1"/>
        <ellipse cx="33.559" cy="8.567" fill="#C8EAE6" rx="1" ry="1"/>
        <ellipse cx="19.759" cy="27.605" fill="#C8EAE6" rx="1" ry="1"/>
        <ellipse cx="83.278" cy="21.788" fill="#7EABB7" rx="1" ry="1"/>
        <path fill="#AFC9CE" d="M71.09 14.807v-1.115a1 1 0 0 1 1-1h.092a1 1 0 0 1 1 1v1.115h1.09a1 1 0 0 1 1 1v.115a1 1 0 0 1-1 1h-1.09v1.116a1 1 0 0 1-1 1h-.091a1 1 0 0 1-1-1v-1.116H70a1 1 0 0 1-1-1v-.115a1 1 0 0 1 1-1h1.09zM18.4 11V9.884a1 1 0 0 1 1-1h.09a1 1 0 0 1 1 1V11h1.092a1 1 0 0 1 1 1v.115a1 1 0 0 1-1 1H20.49v1.115a1 1 0 0 1-1 1H19.4a1 1 0 0 1-1-1v-1.115h-1.09a1 1 0 0 1-1-1V12a1 1 0 0 1 1-1h1.09zM44.745 2.115V1a1 1 0 0 1 1-1h.091a1 1 0 0 1 1 1v1.115h1.091a1 1 0 0 1 1 1v.116a1 1 0 0 1-1 1h-1.09v1.115a1 1 0 0 1-1 1h-.092a1 1 0 0 1-1-1V4.23h-1.09a1 1 0 0 1-1-1v-.116a1 1 0 0 1 1-1h1.09z"/>
        <g stroke="#323232" stroke-width="1.5">
            <path fill="#00C7AE" stroke-linecap="round" stroke-linejoin="round" d="M56.036 44.844l5.019 5.077v-5.077h3.2a6 6 0 0 0 6-6V23.77a6 6 0 0 0-6-6H41.127a6 6 0 0 0-6 6v15.075a6 6 0 0 0 6 6h14.91z"/>
            <g fill="#FFF" transform="translate(41.4 29.191)">
                <ellipse cx="2.091" cy="2.115" rx="1.341" ry="1.365"/>
                <ellipse cx="10.977" cy="2.115" rx="1.341" ry="1.365"/>
                <ellipse cx="19.864" cy="2.115" rx="1.341" ry="1.365"/>
            </g>
            <path fill="#FFF" stroke-linecap="round" stroke-linejoin="round" d="M35.964 61.767l-5.019 5.076v-5.076h-3.2a6 6 0 0 1-6-6V40.69a6 6 0 0 1 6-6h23.128a6 6 0 0 1 6 6v15.076a6 6 0 0 1-6 6h-14.91z"/>
            <path fill="#00C7AE" stroke-linecap="round" stroke-linejoin="round" d="M45.163 51.387v1.656c.002.311-.137.608-.381.818-.244.21-.572.314-.902.286a12.158 12.158 0 0 1-5.08-1.694 11.15 11.15 0 0 1-3.533-3.312 10.492 10.492 0 0 1-1.808-4.786c-.03-.308.08-.614.303-.843.223-.23.538-.36.869-.36h1.766c.591-.005 1.095.4 1.178.95.074.53.212 1.05.412 1.55.161.404.058.859-.265 1.165l-.748.701a9.148 9.148 0 0 0 3.532 3.312l.748-.701c.327-.303.812-.4 1.242-.249.534.187 1.09.317 1.655.387.592.078 1.027.56 1.012 1.12z"/>
        </g>
    </g>
</svg>
